<svg width="133" height="24" viewBox="0 0 133 24" fill="none" xmlns="http://www.w3.org/2000/svg">
<path d="M10 7.38638C10 3.94044 8.36681 0.977038 7.12447 0.0121525C7.11941 0.00899384 7.02938 -0.0428458 7.03698 0.0948357C7.03716 0.0966938 7.03553 0.0972512 7.03553 0.0989234C6.93212 6.75241 3.62507 8.55565 1.80694 10.9849C-2.38884 16.5906 1.51335 22.7367 5.48677 23.8725C7.71021 24.5081 4.97334 22.7478 4.62082 19.03C4.19471 14.5363 10 11.1064 10 7.38638" fill="#151516"/>
<path d="M12.6038 10.0281C12.5245 10.8446 11.5603 12.5905 10.338 14.1938C6.1927 19.6324 8.555 22.2537 9.88341 23.6619C10.6546 24.4793 9.88341 23.6619 11.8111 22.8265C11.9624 22.7611 15.5726 21.0102 15.9637 17.0211C16.3422 13.1584 13.6591 10.7235 12.7041 10.016C12.6746 9.99862 12.6328 9.98667 12.6038 10.0281Z" fill="#3F7FFF"/>
<path d="M32.616 6V13.1334H25.3842V6.92488C25.3842 6.41405 24.9619 6 24.441 6H22V23.0751C22 23.5859 22.4225 24 22.9436 24H25.3842V16.0327H32.616V23.0751C32.616 23.5859 33.0385 24 33.5595 24H36V6.92488C36 6.41405 35.5779 6 35.0568 6H32.616Z" fill="#151516"/>
<path fill-rule="evenodd" clip-rule="evenodd" d="M46.8932 15.4756H41.3182C41.4536 14.6193 41.7389 13.935 42.1728 13.4389C42.6491 12.8905 43.3297 12.6237 44.2496 12.6237C44.7077 12.6237 45.1054 12.7097 45.4294 12.8768C45.757 13.045 46.0289 13.2706 46.2381 13.5473C46.4544 13.8315 46.6188 14.1705 46.7313 14.5544C46.8171 14.8486 46.8703 15.1565 46.8932 15.4756ZM49.6155 13.7879C49.3798 13.0226 49.0087 12.357 48.536 11.8011C48.061 11.2427 47.465 10.7977 46.7627 10.4786C46.0628 10.162 45.242 10 44.3233 10C43.2547 10 42.3118 10.1919 41.5201 10.5696C40.7271 10.9473 40.0598 11.4646 39.5364 12.1065C39.0142 12.7471 38.6225 13.5087 38.3723 14.3712C38.1245 15.2213 38 16.1486 38 17.1246C38 18.1192 38.1293 19.0478 38.3856 19.8842C38.6479 20.7342 39.0662 21.4821 39.6343 22.1066C40.2025 22.7323 40.9302 23.2221 41.8005 23.5636C42.66 23.9027 44.0199 24.1046 45.2033 23.9438C47.3478 23.6521 48.287 22.812 48.924 21.9258C50.0494 20.3591 49.7279 20.0886 49.7279 20.0886H47.2619C46.9803 20.0886 46.4037 21.2777 44.5808 21.2777C43.3321 21.2777 42.8461 21.077 42.226 20.4874C41.6615 19.954 41.3375 19.1101 41.2626 17.9746H49.6747C49.908 17.9746 49.9648 17.8176 49.9745 17.582C50.0144 16.6023 50.0676 15.2512 49.6155 13.7879Z" fill="#151516"/>
<path fill-rule="evenodd" clip-rule="evenodd" d="M58.9807 10C54.8705 10 52 12.9528 52 17.1803C52 21.0686 54.9042 24 58.7515 24C61.3517 24 62.9614 22.9321 62.9614 21.9424V20.1432V19.659H62.7957C62.7957 19.659 61.4613 21.0548 59.0941 21.0548C56.6808 21.0548 55.2966 19.504 55.2966 16.8008C55.2966 14.5313 56.8204 12.9452 58.9994 12.9452C60.0709 12.9452 61.7441 13.0575 62.7595 14.3435L63 14.351V14.0081V11.6933C63 10.7754 61.1586 10 58.9807 10Z" fill="#151516"/>
<path fill-rule="evenodd" clip-rule="evenodd" d="M74.5741 18.1907C74.5741 19.86 73.1907 20.9704 71.5006 20.9704C69.8093 20.9704 68.4259 19.86 68.4259 18.1907V15.8093C68.4259 14.14 69.8093 13.0296 71.5006 13.0296C73.1907 13.0296 74.5741 14.14 74.5741 15.8093V18.1907ZM71.5006 10C67.9245 10 65 12.5247 65 16.0529V17.9621C65 21.4904 67.9245 24 71.5006 24C75.0755 24 78 21.4904 78 17.9621V16.0529C78 12.5247 75.0755 10 71.5006 10Z" fill="#151516"/>
<path fill-rule="evenodd" clip-rule="evenodd" d="M100.981 10C96.8705 10 94 12.9528 94 17.1803C94 21.0686 96.9042 24 100.751 24C103.352 24 104.961 22.9321 104.961 21.9424V20.1432V19.659H104.796C104.796 19.659 103.461 21.0548 101.094 21.0548C98.6808 21.0548 97.2966 19.504 97.2966 16.8008C97.2966 14.5313 98.8204 12.9452 100.999 12.9452C102.071 12.9452 103.744 13.0575 104.76 14.3435L105 14.351V14.0081V11.6933C105 10.7754 103.159 10 100.981 10Z" fill="#151516"/>
<path fill-rule="evenodd" clip-rule="evenodd" d="M115.532 17.6734V21.18C115.261 21.2309 114.962 21.2712 114.638 21.3C113.844 21.3724 113.131 21.3857 112.305 21.3129C111.981 21.2845 111.682 21.2048 111.417 21.0774C111.16 20.9537 110.95 20.7778 110.775 20.5392C110.609 20.3133 110.525 19.9798 110.525 19.5479C110.525 18.8749 110.773 18.3926 111.284 18.0738C111.828 17.7339 112.651 17.5616 113.732 17.5616C114.024 17.5616 114.379 17.5781 114.799 17.6097C115.074 17.6312 115.318 17.6523 115.532 17.6734ZM117.41 11.2116C116.37 10.4077 114.848 10 112.887 10C112.158 10 111.392 10.0513 110.61 10.1525C109.982 10.2336 109.094 10.3495 108.478 10.4869C108.229 10.5424 108.183 10.7325 108.183 10.9597V12.7723C108.183 13.0953 108.186 13.3894 108.539 13.306C109.199 13.1503 110.479 12.8763 110.826 12.8209C111.377 12.7334 111.975 12.6894 112.605 12.6894C113.588 12.6894 114.337 12.8594 114.832 13.1933C115.296 13.508 115.532 14.1072 115.532 14.9739V15.0788C115.357 15.0637 115.165 15.049 114.956 15.0353C114.564 15.0096 114.062 14.9963 113.45 14.9963C112.615 14.9963 111.806 15.088 111.046 15.2689C110.274 15.4526 109.581 15.7366 108.984 16.1145C108.377 16.4989 107.89 16.9872 107.537 17.5667C107.18 18.1507 107 18.8342 107 19.5978C107 20.3733 107.155 21.0486 107.459 21.6042C107.766 22.1645 108.208 22.6322 108.771 22.9931C109.325 23.3491 110.005 23.6097 110.792 23.7682C111.557 23.9221 112.423 24 113.366 24C114.053 24 119 23.9327 119 21.6555V15.0733C119 13.3266 118.465 12.0275 117.41 11.2116Z" fill="#151516"/>
<path fill-rule="evenodd" clip-rule="evenodd" d="M127.417 10.1992C126.128 10.1992 124.698 10.5049 124.461 11.1608V10.8502C124.461 10.381 124.076 10 123.601 10H121V23.1498C121 23.6194 121.385 24 121.859 24H124.436V16.3496C124.436 13.9745 125.825 13.1741 126.886 13.1741C128.377 13.1741 129.589 14.0493 129.589 16.2494V23.1498C129.589 23.6194 129.974 24 130.449 24H133V16.0996C133 12.274 130.929 10.1992 127.417 10.1992Z" fill="#151516"/>
<path fill-rule="evenodd" clip-rule="evenodd" d="M90.925 15.7467C90.2225 14.9538 88.9482 14.2233 87.0292 13.5129C85.2836 12.8255 84.5981 12.407 84.3295 12.1767C83.9977 11.8897 83.8367 11.4908 83.8367 10.9568C83.8367 10.4244 84.0602 10.0226 84.54 9.69218C85.0507 9.33867 85.7383 9.15937 86.583 9.15937C88.0581 9.15937 89.3935 9.53593 90.5526 10.2791L91.0974 10.6268C91.1712 10.6115 91.198 10.498 91.2074 10.4225V7.31563C91.2074 7.25134 91.1196 6.97595 90.8558 6.86459C89.0281 6.0957 87.4451 5.99306 86.6633 6.00034C84.8429 6.03358 83.2859 6.49749 82.0365 7.37896C80.6852 8.33298 80 9.62158 80 11.2089C80 12.3148 80.3051 13.2744 80.9067 14.061C81.507 14.8466 82.739 15.6041 84.6739 16.3764C86.1416 16.9194 87.1214 17.3872 87.5814 17.7652C87.9835 18.0978 88.1788 18.5066 88.1788 19.0157C88.1788 19.5201 88.0409 19.8901 87.7451 20.181C87.2802 20.6377 86.4164 20.856 85.1774 20.8279C82.4048 20.7616 80.3101 19.4364 80.078 19.2833L80.0673 19.2794C80.0632 19.2816 80.0249 19.3105 80.0249 19.5019L80.028 22.7844C80.0599 22.8764 80.1214 22.9446 80.2107 22.9878C81.5444 23.6598 83.1187 24 84.8935 24C86.9481 24 88.653 23.5368 89.9611 22.6243C91.3139 21.6805 92 20.3712 92 18.733C92 17.558 91.6382 16.5532 90.925 15.7467Z" fill="#151516"/>
</svg>
